<svg width="68" height="68" viewBox="0 0 68 68" fill="none" xmlns="http://www.w3.org/2000/svg">
<path d="M0 34C1.6416e-06 15.2223 15.2223 -1.6416e-06 34 0C52.7777 1.6416e-06 68 15.2223 68 34C68 52.7777 52.7777 68 34 68C15.2223 68 -1.6416e-06 52.7777 0 34Z" fill="black"/>
<path fill-rule="evenodd" clip-rule="evenodd" d="M26.8787 52.1213C25.7071 50.9497 25.7071 49.0503 26.8787 47.8787L41.7574 33L26.8787 18.1213C25.7071 16.9498 25.7071 15.0503 26.8787 13.8787C28.0503 12.7071 29.9497 12.7071 31.1213 13.8787L48.1213 30.8787C49.2929 32.0503 49.2929 33.9497 48.1213 35.1213L31.1213 52.1213C29.9497 53.2929 28.0502 53.2929 26.8787 52.1213Z" fill="white"/>
</svg>
