<svg width="68" height="68" viewBox="0 0 68 68" fill="none" xmlns="http://www.w3.org/2000/svg">
<path d="M68 34C68 52.7777 52.7777 68 34 68C15.2223 68 0 52.7777 0 34C0 15.2223 15.2223 0 34 0C52.7777 0 68 15.2223 68 34Z" fill="black"/>
<path fill-rule="evenodd" clip-rule="evenodd" d="M41.1213 15.8787C42.2929 17.0503 42.2929 18.9497 41.1213 20.1213L26.2426 35L41.1213 49.8787C42.2929 51.0502 42.2929 52.9497 41.1213 54.1213C39.9497 55.2929 38.0503 55.2929 36.8787 54.1213L19.8787 37.1213C18.7071 35.9497 18.7071 34.0503 19.8787 32.8787L36.8787 15.8787C38.0503 14.7071 39.9497 14.7071 41.1213 15.8787Z" fill="white"/>
</svg>
